#!OML:ASF I:\Actors\actors\Patient Classification 1\Patient 1\Session 1\Subject1.ASF
:FULLY-SPECIFIED
:DEGREES
523
root 1.76898 17.6757 9.36907 21.671 30.7157 -12.3636
lowerback 12.909 4.5232 1.97596
upperback -3.1904 6.21952 -1.72002
thorax -10.2874 2.79046 -4.29199
lowerneck -20.7258 0.852143 4.6004
upperneck 12.7592 -0.49685 1.94388
head 7.30304 0.196952 -0.155947
rclavicle -1.11319e-013 -4.21423e-014
rhumerus 34.3411 25.7823 -80.9999
rradius 51.6536
rwrist -24.9485
rhand 10.414 -62.936
rfingers 7.12502
rthumb 35.5189 270.631
lclavicle -1.11319e-013 -4.21423e-014
lhumerus 42.0758 -25.9945 70.1115
lradius 37.9827
lwrist 54.0285
lhand -19.5829 21.9536
lfingers 7.12502
lthumb 6.74249 51.8262
rfemur -14.1426 35.3192 19.9192
rtibia -1.3319
rfoot -48.6717 -47.9886
rtoes 31.6299
lfemur -33.0078 -38.1318 13.179
ltibia 0.173225
lfoot -0.534246 33.5218
ltoes -8.57604
524
root 1.81839 17.6769 9.37929 21.7418 30.4178 -12.3311
lowerback 12.8274 4.56624 1.9937
upperback -3.19184 6.29271 -1.58652
thorax -10.2492 2.83109 -4.16449
lowerneck -20.7872 0.831495 4.39745
upperneck 12.7174 -0.46527 1.91813
head 7.29917 0.19811 -0.128147
rclavicle -2.54444e-014 1.90833e-014
rhumerus 32.6768 26.526 -81.0627
rradius 52.1966
rwrist -25.507
rhand 9.52508 -63.4007
rfingers 7.12502
rthumb 34.6758 450.032
lclavicle -2.54444e-014 1.90833e-014
lhumerus 40.4818 -27.0617 70.201
lradius 38.5157
lwrist 54.8098
lhand -20.2568 21.9735
lfingers 7.12502
lthumb 6.09194 51.8659
rfemur -14.1998 35.4308 19.685
rtibia -1.22718
rfoot -48.7713 -47.8739
rtoes 31.7147
lfemur -32.7537 -38.1584 12.833
ltibia 0.103525
lfoot -0.554405 33.7012
ltoes -8.2406
525
root 1.86848 17.6787 9.39116 21.8217 30.048 -12.3436
lowerback 12.7474 4.61413 2.19187
upperback -3.19755 6.38832 -1.59705
thorax -10.1787 2.86748 -4.29598
lowerneck -21.0201 0.773098 4.18217
upperneck 12.7367 -0.522624 2.06855
head 7.34419 0.17669 -0.0501769
rclavicle -4.49253e-014 1.74931e-014
rhumerus 30.7747 27.1439 -81.4277
rradius 52.9021
rwrist -25.7608
rhand 10.2321 -63.8857
rfingers 7.12502
rthumb 35.3465 450.36
lclavicle -4.49253e-014 1.74931e-014
lhumerus 38.7272 -28.492 69.7949
lradius 39.4802
lwrist 55.9602
lhand -20.8654 22.1591
lfingers 7.12502
lthumb 5.50434 52.0676
rfemur -14.2768 35.4748 19.4884
rtibia -1.15229
rfoot -48.7656 -47.7076
rtoes 31.9189
lfemur -32.485 -38.2128 12.5585
ltibia -0.00707784
lfoot -0.668851 33.9959
ltoes -7.51401
526
root 1.92032 17.6799 9.40567 21.8942 29.6891 -12.3369
lowerback 12.6213 4.52103 2.21999
upperback -3.17567 6.26766 -1.57994
thorax -10.0891 2.8127 -4.25453
lowerneck -21.1265 0.923999 4.46656
upperneck 12.5909 -0.391175 2.0058
head 7.31452 0.245432 -0.100059
rclavicle -8.18993e-014 2.3059e-014
rhumerus 28.9117 28.4567 -81.796
rradius 53.7509
rwrist -26.5017
rhand 11.6509 -64.0059
rfingers 7.12502
rthumb 36.6904 450.15
lclavicle -8.18993e-014 2.3059e-014
lhumerus 36.5138 -29.6435 69.3619
lradius 40.7542
lwrist 57.1196
lhand -20.9474 22.4547
lfingers 7.12502
lthumb 5.42514 52.3653
rfemur -14.258 35.6117 19.295
rtibia -1.16016
rfoot -48.9359 -47.6026
rtoes 32.357
lfemur -32.2012 -38.2732 12.2258
ltibia -0.0812632
lfoot -0.87781 34.2801
ltoes -6.78124
527
root 1.97248 17.6806 9.42364 21.9529 29.3043 -12.2601
lowerback 12.4526 4.26764 1.99503
upperback -3.11865 5.89208 -1.53281
thorax -9.98422 2.65259 -3.98524
lowerneck -21.0686 1.39679 5.3945
upperneck 12.3981 0.0779721 1.48926
head 7.24771 0.460465 -0.362039
rclavicle -8.07066e-014 -4.29375e-014
rhumerus 27.1049 30.3839 -82.3357
rradius 54.6819
rwrist -26.916
rhand 10.2097 -64.4281
rfingers 7.12502
rthumb 35.3252 450.908
lclavicle -8.07066e-014 -4.29375e-014
lhumerus 33.8813 -30.5006 68.6839
lradius 42.4627
lwrist 58.5713
lhand -21.1837 22.8033
lfingers 7.12502
lthumb 5.19698 52.7196
rfemur -14.1517 35.8677 19.0605
rtibia -1.18693
rfoot -49.2222 -47.5452
rtoes 32.7792
lfemur -31.8231 -38.3422 11.73
ltibia -0.137804
lfoot -0.98795 34.5118
ltoes -6.37013
528
root 2.02466 17.6821 9.44188 22.0205 28.8659 -12.1942
lowerback 12.3531 4.10854 1.89551
upperback -3.0863 5.66263 -1.51483
thorax -9.91838 2.55184 -3.8544
lowerneck -21.0906 1.75634 6.08638
upperneck 12.3062 0.451124 0.98055
head 7.2306 0.620893 -0.594816
rclavicle 1.19271e-015 3.49861e-014
rhumerus 25.115 32.0397 -82.8241
rradius 55.7707
rwrist -26.8887
rhand 9.26907 -65.2832
rfingers 7.12502
rthumb 34.4328 451.97
lclavicle 1.19271e-015 3.49861e-014
lhumerus 31.1839 -31.6889 68.0856
lradius 44.5092
lwrist 60.2649
lhand -21.8787 23.1833
lfingers 7.12502
lthumb 4.52586 53.1149
rfemur -14.0938 35.8346 18.8648
rtibia -1.16164
rfoot -48.8628 -47.4732
rtoes 32.6465
lfemur -31.416 -38.3935 11.2317
ltibia -0.226335
lfoot -1.01963 34.7744
ltoes -5.90267
529
root 2.07722 17.6839 9.45886 22.1051 28.4042 -12.1776
lowerback 12.3316 4.09231 2.02849
upperback -3.09252 5.66013 -1.5392
thorax -9.89757 2.54264 -3.95213
lowerneck -21.2674 1.90045 6.31817
upperneck 12.2893 0.606671 0.734216
head 7.25883 0.682482 -0.693177
rclavicle -4.8901e-014 -2.06736e-014
rhumerus 22.9956 33.3318 -83.1003
rradius 57.1296
rwrist -27.446
rhand 9.04599 -66.2047
rfingers 7.12502
rthumb 34.2209 452.939
lclavicle -4.8901e-014 -2.06736e-014
lhumerus 28.5605 -33.1416 67.8855
lradius 46.5923
lwrist 61.972
lhand -22.6254 23.6705
lfingers 7.12502
lthumb 3.80482 53.6163
rfemur -14.1097 35.5728 18.6998
rtibia -1.1296
rfoot -48.0649 -47.33
rtoes 32.331
lfemur -31.0996 -38.5325 10.8915
ltibia -0.316613
lfoot -0.990664 35.1851
ltoes -5.4951
